<?xml version="1.0" encoding="UTF-8"?><svg id="Layer_1" xmlns="http://www.w3.org/2000/svg" viewBox="0 0 1871.65 444.4"><defs><style>.cls-1{stroke-width:0px;}</style></defs><path class="cls-1" d="m1037.23,232.02c-19.11,2.62-31.85-6.97-43.01-22.03-2.79,7.05-4.97,12.52-7.12,18.01-11.08,28.36-21.64,56.95-33.41,85.02-7.9,18.84-17.53,36.96-26.37,55.4-.5,1.05-.93,2.13-1.31,3.23-2.34,6.84-7.88,10.82-14.75,9.96-1.25-.16-3.15-2.57-3.17-3.96-.27-18.78-.51-37.58-.27-56.36.36-28.38,3.23-56.48,10.8-83.95.59-2.15,1.23-4.29,2.08-7.24-2.11.32-3.43.27-4.55.73-13.07,5.31-24.68,2.17-35.6-5.82-7.89-5.77-10.65-14.13-10.72-23.15-.06-6.88.73-14.08,2.85-20.59,3.84-11.79,6.77-24.2,15.6-33.74,2.59-2.8,5.27-5.55,8.16-8.02,3.08-2.63,6.48-3.59,10.64-1.79,1.91.82,4.59.47,6.77-.02,14.27-3.17,27.7,3.9,33.03,17.57,2.85,7.31,3.24,7.94,10.36,4.66,6.37-2.93,12.02-7.42,18.08-11.06,5.96-3.58,11.96-7.14,18.1-10.41,19.08-10.17,34.68-1.54,49.29,9.92,12.79,10.04,18.37,24.5,22.21,39.75.31,1.23.57,2.46.85,3.7.53.09,1.05.19,1.58.28.76-2.79,2.23-5.6,2.16-8.38-.22-9.08-.48-18.23-1.73-27.21-1.16-8.37,3.24-14.24,11.48-12.88,3.64.6,4.78-.79,5.83-3.58,3.95-10.54,10.94-19.01,18.91-26.66,5.35-5.13,8.09-4.51,11.67,1.13-4.85,7.67-10.15,14.72-14,22.49-3.8,7.66-6.13,16.04-9.11,24.1.43.38.87.76,1.3,1.14,1.65-.74,3.43-1.28,4.92-2.26,8.04-5.33,15.57-11.66,24.11-15.98,12.46-6.3,25.96-10.26,39.85-4.84,10.84,4.23,14.07,14.31,14.95,24.68,1.12,13.15-1.83,25.82-7.24,37.89-8.73,19.46-21.72,35.37-39.33,47.43-2.46,1.69-5.08,3.2-7.74,4.55-17.06,8.64-31.58,3.38-39.1-14.23-2-4.7-3.53-9.6-5.54-15.14-.7,1.45-1.35,2.32-1.56,3.29-8.67,40.42-25.99,76.8-51,109.61-5.45,7.15-11.05,14.2-16.31,21.5-4.14,5.75-9.22,9.36-16.51,9.8-4.34.26-6.89-1.43-5.86-5.53,4.6-18.19,6.07-37.15,13.87-54.58,7.82-17.46,14.9-35.27,22.78-52.7,3.06-6.76,7.46-12.91,11.2-19.37.64-1.1,1.03-2.34,1.88-4.33Zm-115.66,115.85c1,.15,2,.29,3,.44,31.74-60.84,51.37-126.15,70.19-191.76-4.17,1.66-7.74,3.4-11.02,5.57-6.19,4.1-13.9,7.25-17.96,12.95-10.1,14.16-20.1,28.81-27.18,44.6-8.84,19.71-13.58,41.01-14.72,62.86-.81,15.45-1.96,30.87-2.66,46.32-.29,6.33.2,12.69.34,19.03Zm225.39-198.97c-.63.05-2.17-.06-3.61.29-20.63,5.03-37.14,16.69-51.21,32.15-.97,1.07-1.18,3.08-1.26,4.67-.68,13.27.43,26.39,5.18,38.86,1.8,4.73,4.82,9.06,7.69,13.29,2.92,4.29,7.3,4.66,11.52,2.32,5.47-3.04,11.07-6.1,15.83-10.08,13.68-11.43,23.69-25.68,29.92-42.4,3-8.05,3.92-16.48,2.64-25.08-1.35-9.08-6.87-14.02-16.71-14.02Zm-97.16,45.04c-1-14.58-8.87-28-21.88-38.48-3.01-2.42-6.92-3.96-10.65-5.1-1.31-.4-4.43,1.23-4.88,2.56-4.58,13.38-8.84,26.87-12.98,40.39-.38,1.23.27,3.39,1.23,4.3,4.58,4.35,9.27,8.6,14.21,12.52,5.19,4.12,10.35,8.64,17.88,7.17,10.33-2.01,16.94-10.07,17.08-23.35Zm-156.33-30.8c-2.07,5.44-4.78,10.49-5.82,15.86-1.38,7.08-2.51,14.52-1.82,21.61,1.04,10.67,7.29,16.26,17.92,18.6,7.58,1.67,19.49-2.84,23.37-10.31,3.39-6.53,5.62-13.84,7.28-21.05,1.66-7.22.32-7.87-7.06-7.25-8.24.7-16.91,2.11-23.61-4.53-3.55-3.52-6.29-7.86-10.26-12.94Zm172.46,51.17c-17.68,10.02-61.51,113.15-59.22,127.19,32.22-36.23,49.68-79.23,59.22-127.19Zm-145.18-62.53c1.46,4.8,1.94,8.77,3.89,11.78.96,1.48,4.64,1.28,7.12,1.57.21.02,1.27-2.31.91-3.04-2.24-4.52-5.32-8.29-11.92-10.31Z"/><path class="cls-1" d="m204.04,190.24c4.92.69,9.13,1.28,13.35,1.86,2.47.34,4.94.67,7.41.97,4.61.56,9.21,1.13,13.82,1.63,4.55.5,9.12.9,10.91,6.38.64.51,1.29,1.01,1.93,1.52.87-1.73,1.47-3.68,2.65-5.15,9.27-11.53,18.39-23.19,28.1-34.34,4.98-5.71,10.22-5.12,15.56-.01,1.15,1.1,3.23,1.54,4.94,1.68,7.35.6,9.86,4.17,7.19,10.96-5.44,13.78-11.13,27.47-16.49,41.28-1.92,4.95-3.19,10.16-4.76,15.24.62.39,1.25.78,1.87,1.17,1.95-1.56,4.23-2.83,5.8-4.71,13.55-16.21,26.85-32.63,40.49-48.76,6.43-7.6,13.39-14.75,20.23-22,3.11-3.29,6.97-2.86,10.63-1.09,3.42,1.66,3.22,4.92,2.35,7.87-5.01,16.89-10.01,33.78-15.35,50.57-2.27,7.13-5.63,13.9-7.93,21.02-.75,2.33.3,5.24.52,7.89,2.4-.9,5.31-1.22,7.09-2.81,3.57-3.19,7.23-6.66,9.61-10.74,7.46-12.74,15.71-25.14,17.97-40.32.66-4.43,2.55-8.9,4.84-12.79,2.48-4.22,7.07-3.15,10.16-.99,1.63,1.14,2.31,4.88,2.02,7.27-.52,4.25-2.33,8.32-3.19,12.55-2.66,12.95,4.08,25.91,15.3,33.21,9.63,6.26,20.36,7.81,31.06,10.06,1.44.3,3.03.58,4.19,1.39,2.58,1.79,3.22,3.94-.11,5.7-8.07,4.26-16.75,4.48-25.29,2.59-15.18-3.35-27.77-10.97-36.26-24.47-.25-.39-.72-.65-1.79-1.58-1.33,1.93-2.7,3.63-3.77,5.51-6.05,10.63-12.26,21.25-23.73,26.91-3.67,1.81-8.32,2.86-12.36,2.49-9.54-.86-13.83-6.37-11.76-15.8,1.95-8.88,5.36-17.45,8.35-26.07,3.76-10.83,7.76-21.58,11.61-32.38.24-.68.03-1.53.03-3.54-1.74,1.47-2.8,2.1-3.52,3.01-14.3,17.96-28.47,36.03-42.87,53.91-4.42,5.49-9.7,10.11-16.97,11.68-7.28,1.57-12.88-2.02-13.25-9.47-.23-4.54.77-9.23,1.78-13.72,1.01-4.49,2.74-8.82,3.14-13.9-1.59,1.72-3.19,3.44-4.76,5.17-5.71,6.29-11.11,12.89-20,15.07-4.4,1.08-8.24.7-11.62-2.42-3.48-3.22-2.43-7.12-1.08-10.69,1.39-3.67,3.46-7.08,4.89-9.91-10.51-2.21-20.85-4.56-31.27-6.52-11.13-2.09-15.75,1.02-19.02,11.94-1.49,4.99-2.91,9.92-9.84,10.13-1.8.05-3.52,2.88-5.27,4.43-.36-.22-.72-.45-1.08-.67,4.54-9.4,9.09-18.8,14.2-29.38-5.98-.76-11.44-2.16-16.86-2.02-16.61.45-33.24,1.17-49.81,2.4-20.25,1.5-40.45,3.58-60.66,5.48-18.22,1.71-36.43,3.4-54.63,5.33-6.64.7-14.21-6.63-12.46-13.07.54-1.98,2.84-4.05,4.84-4.96,7.22-3.28,15.03-5.39,21.92-9.21,10.61-5.88,20.56-12.93,30.93-19.23,11.07-6.73,22.4-13.05,33.47-19.78,10.49-6.38,20.72-13.18,31.18-19.61,8.22-5.05,16.75-9.61,24.91-14.74,5.75-3.62,11.05-7.97,16.69-11.77,12.08-8.14,24.35-16,36.36-24.25,8.72-5.99,17.03-12.58,25.73-18.61,16.66-11.55,33.39-23,50.22-34.3,9.51-6.39,19.3-12.34,28.88-18.63,4.25-2.79,11.53-2.83,13.75.23,1.87,2.59-.38,10.16-3.81,13.11-15.12,13.01-30.2,26.06-45.33,39.05-3.73,3.2-5.1,7.33-6.58,11.92-4.33,13.44-9.19,26.74-14.41,39.87-5.28,13.3-10.85,26.51-16.99,39.43-6.28,13.22-13.28,26.12-20.3,38.97-1.08,1.98-3.97,2.98-7.66,5.59Zm41.58-132.25c-1.47.61-2.64.85-3.53,1.49-12.86,9.16-25.53,18.59-38.54,27.53-16.88,11.59-33.93,22.93-51.08,34.1-13.67,8.91-27.57,17.46-41.42,26.09-23.17,14.45-46.4,28.81-69.56,43.28-1.54.96-2.74,2.49-4.09,3.75,2.71,1.14,4.93,1.29,7.13,1.11,3.97-.32,7.91-1.08,11.88-1.24,8.44-.33,16.92-.06,25.34-.63,25.81-1.77,51.58-4.09,77.4-5.63,8.84-.53,17.79.64,26.69.95,3.66.13,7.35.23,10.98-.09,1.35-.12,3.36-1.22,3.77-2.34,7.46-20.43,19.63-38.69,26.8-59.28,5.08-14.59,11.61-28.66,16.8-43.21,2.87-8.04,4.91-16.56,1.44-25.87Zm13.02,156.52c11.49-5.78,26.23-26.19,24.32-34.51-9.66,11.18-17.34,22.59-24.32,34.51Z"/><path class="cls-1" d="m724.08,155.7c-3.54,1.19-5.69,1.86-7.8,2.63-10.16,3.68-20.3,7.38-30.46,11.06-.62.23-1.35.6-1.92.46-3.57-.88-7.1-1.88-10.65-2.84.92-3.05,1.58-6.22,2.85-9.11.99-2.25,2.95-4.05,4.13-6.24,10.29-19.13,27.59-29.23,47.04-36.51,3.08-1.15,4.99-2.64,5.59-6.16,4.11-24.12,8.41-48.2,12.62-72.3.45-2.59.32-4.93-3.34-4.33-14.1,2.32-28.28,4.29-42.25,7.25-5,1.06-9.67,4.23-14.17,6.97-4.2,2.55-8.59,2.46-11.56-1.27-3.09-3.88-.73-6.72,1.97-9.53,7.32-7.59,17.03-9.42,26.76-10.98,13.77-2.21,27.6-4.03,41.35-6.31,1.5-.25,3.29-2.14,3.91-3.69,1.47-3.69,4.12-4.92,7.73-5.16,3.8-.26,7.08.42,8.5,4.46,1.31,3.73,4.04,4.2,7.53,4.16,22.96-.26,45.9-.33,68.21,6.5,10.76,3.29,21.8,5.77,32.41,9.47,5.2,1.82,9.89,5.36,14.51,8.55,3.74,2.58,4.19,6.62,1.72,10.17-3.41,4.89-7.18,9.6-11.29,13.91-4.47,4.68-9.31,9.08-14.38,13.1-4.8,3.81-9.89,7.4-15.25,10.37-21.09,11.69-42.34,23.09-63.51,34.62-.26.14-.4.5-.92,1.17.73.86,1.47,1.87,2.34,2.75,12.93,13.16,25.92,26.26,38.79,39.47,4.4,4.52,9.03,8.96,12.65,14.07,6.12,8.65,12.11,17.5,17.06,26.85,4.49,8.47,7.39,17.78,11.3,26.58,1.32,2.98,3.42,5.68,5.5,8.23,2.76,3.37,2.18,6-2,7.44-10.73,3.72-18.44-.06-20.86-11.71-3.66-17.67-13.41-32.26-22.82-46.89-4.95-7.7-12.21-13.97-18.69-20.63-9.6-9.87-19.44-19.52-29.19-29.25-.59-.58-1.3-1.04-1.94-1.58-6.56-5.58-13.15-7.89-20.89-1.67-3.17,2.55-7.56,3.52-10.93,5.87-2.1,1.46-4.31,3.96-4.81,6.35-5.68,26.86-11.27,53.75-16.3,80.74-1.2,6.42-.67,13.29-.09,19.88.42,4.79,2.44,5.23,6.36,2.69,1.37-.89,3.11-1.21,4.69-1.78-.05,1.72.26,3.56-.24,5.14-.93,2.96-1.59,6.54-3.65,8.5-7.08,6.69-18.7,3.27-20.8-6.06-2.8-12.43-1.02-24.95,1.32-37.17,3.44-17.97,7.93-35.73,11.81-53.61.96-4.43,1.29-8.99,2.06-14.63Zm46.83-36.48c.06-.02,1.35-.32,2.48-.94,12.27-6.69,24.52-13.41,36.76-20.16,8.65-4.78,17.26-9.64,25.91-14.42,4.9-2.71,10.59-4.52,14.6-8.18,7.33-6.69,13.7-14.42,20.4-21.78,2.02-2.22,1.01-3.75-1.39-5.04-8.01-4.32-15.85-8.25-25.07-10.42-26.03-6.12-52.21-7.74-78.75-6.46-3.22.16-4.79,1.25-5.39,4.46-4.61,24.53-9.35,49.03-13.91,73.56-.2,1.1.66,3.31,1.44,3.53,7.19,2.03,14.48,3.74,22.92,5.83Zm-73.49,34.23c4.75-1.81,9.57-3.45,14.21-5.48,4.37-1.92,8.75-3.97,12.77-6.51,3.46-2.19,4.51-5.79,3.49-10.71-12.8,4.43-23.63,10.63-30.47,22.7Zm50.71-22.15c-.32-.8-.64-1.6-.96-2.41-1.57.6-3.17,1.14-4.66,1.9-.13.06.48,1.57.75,2.41,1.62-.64,3.24-1.27,4.86-1.91Z"/><path class="cls-1" d="m1533.81,115.82c2.26,2.04,3.57,3.22,5.56,5.02.71-6.46,3.76-8.78,10.46-9.95,5.87-1.03,11.64-2.81,17.54-3.44,3.47-.37,7.11.86,10.95,1.41,1.73-5.63,11.69-9.83,18.53-6.65,5.52,2.57,5.99,2.32,9.43-3.22.69-1.11,2.24-1.98,3.56-2.34,4.82-1.3,9.68-2.45,14.57-3.43,9.75-1.96,19.56-3.67,29.3-5.69,13.02-2.69,26.03-5.47,38.99-8.43,5.15-1.18,10.1-3.23,15.26-4.35,7.25-1.58,14.61-2.66,21.89-3.95.94,3.99,8.14,6.07,12.14,3.45,4.18-2.74,8.19-3.97,13.07-1.82,2.16.95,4.17.67,5.23-2.63,1.97-6.09,4.98-6.55,9.83-2.67,1.35,1.08,3.72,1.54,5.5,1.31,5.23-.67,10.11-1.68,14.64-5.41,2.9-2.39,8.12-2.16,12.36-2.66,7.62-.9,15.32-1.18,22.91-2.25,9.75-1.37,18.82-6.19,29.09-5.42,3.16.24,6.43-1.46,9.69-2.01,2.28-.39,4.63-.34,6.95-.49.12.58.25,1.16.37,1.75-1.68.59-3.33,1.39-5.06,1.74-16.26,3.35-32.56,6.57-48.81,9.94-14.29,2.97-28.59,5.95-42.82,9.17-25.58,5.79-51.1,11.88-76.7,17.64-16.66,3.75-33.41,7.05-50.09,10.7-6.96,1.52-13.83,3.46-20.76,5.14-27.3,6.64-54.66,13.04-81.88,19.97-16.42,4.18-32.59,9.29-48.93,13.79-6.38,1.76-12.97,2.74-19.36,4.48-11.23,3.06-22.39,6.38-33.54,9.69-14.68,4.35-29.36,8.7-43.98,13.23-17.96,5.55-35.91,11.15-53.78,16.97-19.13,6.23-38.15,12.78-57.26,19.1-3.31,1.09-6.74,1.93-10.18,2.49-6.75,1.09-10.69,5.23-12.5,11.42-7.47,25.46-25.24,41.15-49.04,50.24-22.47,8.58-44.38-.33-47.59-26.11-1.32-10.56.84-20.83,5.01-30.7,1-2.36,1.35-5.42.82-7.91-1.03-4.85-.43-9.02,3.22-12.38,7.71-7.1,15.32-14.34,23.43-20.96,5.96-4.87,13.37-4.36,20.6-3.45,4.59.58,9.21.89,13.79,1.49,6.57.86,13.19,1.58,19.68,2.88,8.84,1.77,13.15,8.42,14.71,16.47.93,4.78,3.16,5.44,6.82,4.52,4.84-1.22,9.58-2.82,14.37-4.24,17.05-5.06,34.14-9.98,51.12-15.23,8.69-2.69,17.15-6.12,25.8-8.93,2.61-.85,5.54-.68,8.31-1.05,1.26-.17,2.57-.34,3.71-.83,3.75-1.6,7.33-3.63,11.16-4.99,5.77-2.05,11.69-3.67,17.55-5.47,9.33-2.85,18.51-6.82,28.05-8.14,6.19-.85,11.41-3.19,17.1-4.93,13.29-4.07,26.91-7.09,40.35-10.71,4.48-1.21,8.75-3.25,13.25-4.35,4.09-1,8.37-1.2,12.55-1.86,1.09-.17,2.12-.78,3.17-1.18,3.54-1.35,7.08-2.7,9.85-3.76Zm-281.69,98.47c-1.57.09-2.7.02-3.76.24-18.47,3.85-36.93,7.21-55.7,1.69-2.84-.84-4.8.43-5.55,3.45-1.81,7.33-2.94,14.66-.88,22.15,2.64,9.64,11.7,15.61,21.52,13.12,20.43-5.19,35.07-17.59,43.57-37,.43-.98.48-2.12.8-3.64Zm-34.81-11.16c.01-.16.03-.33.04-.49,2.16,0,4.42.38,6.44-.15,1.13-.29,2.79-2.28,2.61-3.19-.8-4.04-2-8.04-3.47-11.89-.41-1.07-2.46-2.47-3.4-2.24-7.39,1.82-14.97,3.57-20.4,9.47-3.02,3.29-2.43,5.34,1.93,6.26,5.33,1.12,10.82,1.52,16.24,2.22Zm23.88-20.83c-.48.32-.96.64-1.44.95,1.21,4.23,2.53,8.43,3.6,12.69,1.48,5.87,5.46,3.29,8.78,2.67,3.81-.71,4.13-3.42,3.16-6.48-2.22-7-8.33-8.19-14.11-9.84Zm463.66-104.83c-.05.64-.1,1.27-.16,1.91,2.03,2.42,4.4,4.45,7.72,2.42.83-.51.54-2.83.77-4.32h-8.33Zm-13.84,6.54c-.16-.78-.33-1.56-.49-2.34-2.77.4-5.55.8-8.32,1.2.08.55.16,1.1.23,1.66,2.86-.2,6.37,4.62,8.58-.51Z"/><path class="cls-1" d="m577.68,209.91c0-2.73-.18-4.74.04-6.7.39-3.52-.6-5.87-4.43-6.44-5.76-.87-11.5-1.82-17.26-2.69-3.69-.56-5.09,1.01-4.94,4.77.21,5.29.17,10.61-.13,15.89-.36,6.63-3.69,11.95-8.04,16.78-8.12,9.04-18.2,15.97-29.53,18.89-15.07,3.89-30.97,7.91-45.85-2-5.66-3.77-8.07-9.28-8.43-15.63-1.22-21.33,10.05-36.1,27.3-45.81,11.68-6.58,25.43-8.82,39.04-9.24,11.67-.36,9.54.17,10.41-10.45,1.14-13.89,2.8-27.74,4.6-41.56.39-2.96,2.21-5.77,3.56-8.56,1.94-4.02,1.73-8.14-1.46-10.92-10.39-9.08-13.17-21.21-14.54-34.01-.54-5.07,2.27-8.16,7.5-8.46,5.86-.34,8.33,1.63,8.34,7.19,0,6.4.22,12.69,3.81,18.3.87,1.36,1.86,2.64,3.54,5,1.84-3.3,3.37-5.72,4.6-8.29,4.51-9.47,9.3-18.7,17.65-25.55,1.64-1.34,3.16-3.08,4.13-4.95,5.59-10.87,15.79-17.34,24-25.73,6.67-6.81,15.48-9.79,23.65-13.16,6.09-2.51,14.08-1.83,20.91-.71,6.4,1.05,9.61,9.55,8,16.73-2.7,12.09-8.85,22.56-15.49,32.74-4.54,6.95-9.13,14-14.63,20.17-10,11.21-21.36,20.87-35.36,27.04-7.52,3.31-15.26,4.45-23.37,3.67-7.54-.73-7.75-.46-9.81,7.08-4.42,16.21-5.97,32.71-5.7,49.46.06,3.84,1.19,5.77,5.26,6.2,7.1.75,14.26,1.47,21.19,3.09,6.85,1.6,14.36,2.99,16.2,11.86,1.09,5.23-3.1,10.89-8.31,11.76-1.93.32-3.58,2.27-6.48,4.24Zm-5.11-106.38c4.11-1.09,8.31-1.92,12.32-3.31,13.95-4.82,23.78-15.21,32.75-26.1,9.43-11.45,17.27-24.11,21.42-38.61,1.52-5.31-.51-8.28-5.86-7.24-5.55,1.08-11.43,2.95-15.99,6.15-21.77,15.27-38.88,34.71-50.45,58.85-4.47,9.33-4.6,9.26,5.82,10.26Zm-42.51,88.52c-12.26.2-22.99,1.92-33.24,6.36-11.15,4.83-18.01,13.59-21.96,24.53-3.81,10.54.53,18.03,11.6,19.62,6.05.87,12.56.08,18.65-1.09,17.06-3.28,36.34-18.75,32.11-42.05-1.51-8.33-2-7.32-7.16-7.36Z"/><path class="cls-1" d="m177.76,253.13c-4.31,2.98-5.26,9.42-11.68,10.31-.67.09-1.5,1.74-1.61,2.74-.84,7.21-3.25,13.46-9.56,17.76-.93.63-1.66,2.26-1.67,3.43-.06,5.25-2.65,7.98-7.73,8.71-.7.1-1.32.81-1.97,1.24,2.45,3.87,1,11.18-3.39,12.74-7.24,2.57-8.3,9.2-11.3,14.57-2.17,3.89-3.44,8.32-5.79,12.09-1.59,2.55-4.24,4.5-6.59,6.5-4.86,4.13-9.92,8.12-11.95,14.5-3.02,9.51-9.16,16.98-16.04,23.74-2.96,2.91-7.64,4.04-10.78,6.83-1.66,1.48-1.72,4.77-2.47,7.26-.45,1.49-.38,3.4-1.31,4.43-5.88,6.52-11.6,13.24-18.07,19.13-8.45,7.69-17.16,15.22-26.54,21.69-4.01,2.77-9.95,3.16-15.09,3.6-1.58.14-4.75-3-4.99-4.9-1.49-12.04-2.49-24.14-3.4-36.24-1.41-18.7,5.1-35.8,11.46-52.78,8.04-21.47,18.9-41.53,33.43-59.35,20.62-25.29,46.37-43.66,77.89-52.34,14.92-4.11,30.7-5.66,46.21-6.95,25.74-2.14,51.47-.54,77.05,3.02,1.15.16,2.42.13,3.42.63,2.47,1.23,4.82,2.72,7.22,4.1-2.66,2.09-5.06,4.72-8.05,6.1-2.05.95-4.93.38-7.4.12-8.09-.84-16.15-2.17-24.26-2.7-10.59-.69-21.21-1.1-31.81-.97-3.63.04-7.24,2.05-10.83,3.25-.92.31-1.78,1.47-2.56,1.38-2.29-.29-4.37-.07-4.07,2.62.13,1.14,2.24,2.06,4.25,3.74ZM19.36,402.92c.55,7.29.85,14.62,1.7,21.88,1,8.63,2.7,9.26,9.35,4.12.53-.41,1.15-.7,1.64-1.13,7.45-6.56,15.34-12.69,22.2-19.82,7.13-7.4,12.91-16.09,19.92-23.63,8.55-9.19,17.96-17.6,22.4-29.85.38-1.05,1.23-1.99,2.04-2.81,15.6-15.96,26.86-35.08,39.07-53.51,4.12-6.22,7.79-12.73,11.73-19.06,6.13-9.83,12.4-19.58,18.42-29.48.94-1.54.89-3.69,1.3-5.56-2.04-.36-4.07-.91-6.12-1.02-1.07-.06-2.2.62-3.28,1.04-3.91,1.53-7.71,3.48-11.75,4.55-4.79,1.27-9.86,1.47-14.67,2.7-20.51,5.22-39.38,14.37-54.69,28.77-20.01,18.82-37.76,39.73-46.37,66.73-.91,2.85-2.23,5.56-3.34,8.35-6.11,15.31-10.1,31.03-9.54,47.74Z"/><path class="cls-1" d="m617.06,224.86c-5.63.04-9.28-3.85-9.32-9.96-.05-5.99,4.62-11.89,9.27-11.73,6.91.24,10.56,4.46,10.56,12.21,0,5.67-4.17,9.43-10.5,9.47Z"/></svg>